<svg viewBox="0 0 54 62" version="1.1" xmlns="http://www.w3.org/2000/svg" xmlns:xlink="http://www.w3.org/1999/xlink">
  <g fill="#1E1E23">
      <path d="M23.0348093,41.8947572 L23.0348093,3.9899703 C12.4105688,3.9899703 3.7978594,12.4753099 3.7978594,22.9424329 C3.7978594,33.4095559 12.4105688,41.8947572 23.0348093,41.8947572 Z M35.1561925,0 C41.4618711,0 46.573624,5.03615729 46.573624,11.2485838 L46.573624,45.8847275 L0,45.8847275 L0,0 L35.1561925,0 Z M8.23929748,52.2251626 C8.09534264,52.3419601 7.99372746,52.4337295 7.89211228,52.500471 L8.70503371,54.2274052 L5.6481104,54.2274052 L4.93680414,52.7257233 L3.06539125,52.7257233 L3.06539125,54.2274052 L0.169358633,54.2274052 L0.169358633,48.3875308 L6.26626941,48.3875308 C6.79128117,48.3875308 7.66347812,48.4709576 8.18848989,48.8547208 C8.67962992,49.2801974 8.80664889,49.9476116 8.80664889,50.556627 C8.80664889,51.1155865 8.69656578,51.8497421 8.23929748,52.2251626 Z M3.06539125,50.3063467 L3.06539125,50.8653061 L4.80131723,50.8653061 C5.00454759,50.8653061 5.28398934,50.8653061 5.47875176,50.8152501 C5.63964247,50.7735367 5.69891799,50.6483965 5.69891799,50.5733124 C5.69891799,50.4982283 5.6481104,50.3981162 5.47875176,50.3480601 C5.29245727,50.2896614 4.99607966,50.3063467 4.80131723,50.3063467 L3.06539125,50.3063467 Z M17.1899012,50.014353 L12.5494747,50.014353 L12.5494747,50.4648576 L17.096754,50.4648576 L17.096754,52.0916797 L12.5494747,52.0916797 L12.5494747,52.6005831 L17.1899012,52.6005831 L17.1899012,54.2274052 L9.14536616,54.2274052 L9.14536616,48.3875308 L17.1899012,48.3875308 L17.1899012,50.014353 Z M25.5731535,50.014353 L20.932727,50.014353 L20.932727,50.4648576 L25.4800063,50.4648576 L25.4800063,52.0916797 L20.932727,52.0916797 L20.932727,54.2274052 L17.5286185,54.2274052 L17.5286185,48.3875308 L25.5731535,48.3875308 L25.5731535,50.014353 Z M30.4083425,54.3525454 C29.5276776,54.3525454 28.0457896,54.310832 27.0889133,53.7018166 C26.2336522,53.1595425 25.8271915,52.1167078 25.8271915,51.3491814 C25.8271915,50.5733124 26.2167163,49.5304777 27.0889133,48.9965463 C28.0457896,48.4125589 29.4006586,48.3041041 30.4168104,48.3041041 C31.4414301,48.3041041 32.7116199,48.4125589 33.6684962,48.9965463 C34.5322252,49.522135 34.9471538,50.5816551 34.9471538,51.3491814 C34.9471538,52.1167078 34.5237573,53.1678852 33.6684962,53.7018166 C32.7116199,54.3024893 31.2890074,54.3525454 30.4083425,54.3525454 Z M30.3914066,52.5171563 C30.7385918,52.5171563 31.2805394,52.5088136 31.6531284,52.266876 C31.9749098,52.058309 32.1442685,51.6578605 32.1442685,51.3658668 C32.1442685,51.0655304 31.9749098,50.6650819 31.6531284,50.4565149 C31.2890074,50.2229199 30.7385918,50.2229199 30.3998745,50.2229199 C30.0611573,50.2229199 29.4853379,50.2312626 29.1127489,50.4565149 C28.7824996,50.6567392 28.6300768,51.0655304 28.6300768,51.3658668 C28.6300768,51.6578605 28.7824996,52.058309 29.1127489,52.266876 C29.4853379,52.500471 30.0526894,52.5171563 30.3914066,52.5171563 Z M43.4404893,52.2251626 C43.2965344,52.3419601 43.1949192,52.4337295 43.0933041,52.500471 L43.9062255,54.2274052 L40.8493022,54.2274052 L40.1379959,52.7257233 L38.266583,52.7257233 L38.266583,54.2274052 L35.3705504,54.2274052 L35.3705504,48.3875308 L41.4674612,48.3875308 C41.9924729,48.3875308 42.8646699,48.4709576 43.3896817,48.8547208 C43.8808217,49.2801974 44.0078407,49.9476116 44.0078407,50.556627 C44.0078407,51.1155865 43.8977576,51.8497421 43.4404893,52.2251626 Z M38.266583,50.3063467 L38.266583,50.8653061 L40.002509,50.8653061 C40.2057394,50.8653061 40.4851811,50.8653061 40.6799435,50.8152501 C40.8408342,50.7735367 40.9001098,50.6483965 40.9001098,50.5733124 C40.9001098,50.4982283 40.8493022,50.3981162 40.6799435,50.3480601 C40.4936491,50.2896614 40.1972714,50.3063467 40.002509,50.3063467 L38.266583,50.3063467 Z M54,48.3875308 L54,54.2274052 L51.0700957,54.2274052 L51.0700957,52.0666517 L49.7490983,54.2274052 L48.6059276,54.2274052 L47.2764623,52.0499664 L47.2764623,54.2274052 L44.3465579,54.2274052 L44.3465579,48.3875308 L47.2764623,48.3875308 L49.1817469,51.516035 L51.0700957,48.4042162 L51.0700957,48.3875308 L54,48.3875308 Z M0.169358633,59.0049787 C0.169358633,58.1873963 0.491140034,57.1695896 1.42261251,56.6273155 C2.35408499,56.0850415 3.8275051,55.9515586 4.74204171,55.9515586 C5.60577074,55.9515586 7.12999843,56.1768109 8.00219539,56.6273155 C8.95907166,57.1195335 9.23851341,57.9287733 9.28085307,58.7463557 L6.46949976,58.7463557 C6.42716011,58.4877327 6.30014113,58.2374523 5.99529559,58.0872841 C5.65657833,57.9204306 5.02148346,57.8620318 4.73357378,57.8620318 C4.42026031,57.8620318 3.81056923,57.8787172 3.4549161,58.0872841 C3.09926298,58.2958511 2.972244,58.6962996 2.972244,59.0049787 C2.972244,59.3136578 3.10773091,59.7057636 3.4549161,59.9059879 C3.8275051,60.1228975 4.40332445,60.1562682 4.73357378,60.1562682 C5.08922691,60.1562682 5.60577074,60.1312402 5.99529559,59.9059879 C6.24086561,59.7641624 6.39328838,59.488854 6.4525639,59.2469163 L9.27238513,59.2469163 C9.19617375,59.956044 8.77277717,60.8904239 8.00219539,61.3325858 C7.01144739,61.8998879 5.67351419,61.9833146 4.74204171,61.9833146 C3.88678062,61.9833146 2.37948879,61.9082305 1.42261251,61.3325858 C0.541947624,60.7986544 0.169358633,59.7975331 0.169358633,59.0049787 Z M14.116042,62 C13.2353771,62 11.7534891,61.9582866 10.7966128,61.3492711 C9.94135173,60.8069971 9.53489101,59.7641624 9.53489101,58.996636 C9.53489101,58.220767 9.92441587,57.1779323 10.7966128,56.6440009 C11.7534891,56.0600135 13.1083582,55.9515586 14.12451,55.9515586 C15.1491297,55.9515586 16.4193194,56.0600135 17.3761957,56.6440009 C18.2399247,57.1695896 18.6548534,58.2291097 18.6548534,58.996636 C18.6548534,59.7641624 18.2314568,60.8153398 17.3761957,61.3492711 C16.4193194,61.9499439 14.9967069,62 14.116042,62 Z M14.0991062,60.1646109 C14.4462914,60.1646109 14.988239,60.1562682 15.360828,59.9143306 C15.6826094,59.7057636 15.851968,59.3053151 15.851968,59.0133214 C15.851968,58.712985 15.6826094,58.3125364 15.360828,58.1039695 C14.9967069,57.8703745 14.4462914,57.8703745 14.1075741,57.8703745 C13.7688568,57.8703745 13.1930375,57.8787172 12.8204485,58.1039695 C12.4901992,58.3041938 12.3377764,58.712985 12.3377764,59.0133214 C12.3377764,59.3053151 12.4901992,59.7057636 12.8204485,59.9143306 C13.1930375,60.1479255 13.7603889,60.1646109 14.0991062,60.1646109 Z" id="Combined-Shape"></path>
  </g>
</svg>